<?xml version="1.0" encoding="UTF-8" standalone="no"?> <svg width="48" height="48" viewBox="0 0 48 48" fill="none" xmlns="http://www.w3.org/2000/svg">
<path d="M33.5 8.00002C33.0988 8.00018 32.6981 8.02523 32.3 8.07502C31.3187 6.80739 30.0603 5.78127 28.621 5.07532C27.1818 4.36937 25.6 4.00232 23.997 4.00232C22.394 4.00232 20.8122 4.36937 19.373 5.07532C17.9337 5.78127 16.6753 6.80739 15.694 8.07502C15.2979 8.02548 14.8992 8.00043 14.5 8.00002C12.1182 8.0028 9.80816 8.81527 7.94901 10.3041C6.08987 11.7928 4.79213 13.8695 4.26883 16.193C3.74553 18.5166 4.02776 20.9491 5.06919 23.0911C6.11062 25.2332 7.84937 26.9575 10 27.981V39C10.0016 40.3256 10.5289 41.5965 11.4662 42.5338C12.4036 43.4711 13.6744 43.9984 15 44H33C34.3256 43.9984 35.5964 43.4711 36.5338 42.5338C37.4711 41.5965 37.9984 40.3256 38 39V27.981C40.1506 26.9575 41.8894 25.2332 42.9308 23.0911C43.9723 20.9491 44.2545 18.5166 43.7312 16.193C43.2079 13.8695 41.9101 11.7928 40.051 10.3041C38.1918 8.81527 35.8818 8.0028 33.5 8.00002V8.00002Z" fill="#EAEFF0"/>
<path d="M16 38V24.872C14.5796 24.1599 13.3179 23.1678 12.2907 21.9555C11.2636 20.7432 10.4922 19.3357 10.0231 17.8176C9.55397 16.2995 9.39673 14.7021 9.56083 13.1217C9.72493 11.5413 10.207 10.0103 10.978 8.621C9.02164 9.31544 7.31543 10.575 6.07553 12.24C4.83562 13.905 4.11784 15.9005 4.0131 17.9739C3.90836 20.0472 4.42139 22.1049 5.48719 23.8864C6.55298 25.6679 8.12359 27.0929 10 27.981V39C10.0016 40.3256 10.5289 41.5964 11.4662 42.5338C12.4036 43.4711 13.6744 43.9984 15 44H22C20.4087 44 18.8826 43.3679 17.7574 42.2426C16.6321 41.1174 16 39.5913 16 38Z" fill="#CDD3D3"/>
<path d="M38 36H10V38H38V36Z" fill="#CDD3D3"/>
<path d="M16 36H10V38H16V36Z" fill="#C1C6C6"/>
<path d="M24 26C23.7348 26 23.4804 26.1054 23.2929 26.2929C23.1054 26.4804 23 26.7348 23 27V31C23 31.2652 23.1054 31.5196 23.2929 31.7071C23.4804 31.8946 23.7348 32 24 32C24.2652 32 24.5196 31.8946 24.7071 31.7071C24.8946 31.5196 25 31.2652 25 31V27C25 26.7348 24.8946 26.4804 24.7071 26.2929C24.5196 26.1054 24.2652 26 24 26Z" fill="#8FA5A5"/>
<path d="M30 27C29.7348 27 29.4804 27.1054 29.2929 27.2929C29.1054 27.4804 29 27.7348 29 28V31C29 31.2652 29.1054 31.5196 29.2929 31.7071C29.4804 31.8946 29.7348 32 30 32C30.2652 32 30.5196 31.8946 30.7071 31.7071C30.8946 31.5196 31 31.2652 31 31V28C31 27.7348 30.8946 27.4804 30.7071 27.2929C30.5196 27.1054 30.2652 27 30 27Z" fill="#8FA5A5"/>
<path d="M18 27C17.7348 27 17.4804 27.1054 17.2929 27.2929C17.1054 27.4804 17 27.7348 17 28V31C17 31.2652 17.1054 31.5196 17.2929 31.7071C17.4804 31.8946 17.7348 32 18 32C18.2652 32 18.5196 31.8946 18.7071 31.7071C18.8946 31.5196 19 31.2652 19 31V28C19 27.7348 18.8946 27.4804 18.7071 27.2929C18.5196 27.1054 18.2652 27 18 27Z" fill="#8FA5A5"/>
</svg>
